<svg xmlns="http://www.w3.org/2000/svg" xmlns:xlink="http://www.w3.org/1999/xlink" width="32" height="32" viewBox="0 0 32 32">
  <defs>
    <rect id="rect-1" width="32" height="32" x="0" y="0"/>
    <mask id="mask-2" maskContentUnits="userSpaceOnUse" maskUnits="userSpaceOnUse">
      <rect width="32" height="32" x="0" y="0" fill="black"/>
      <use fill="white" xlink:href="#rect-1"/>
    </mask>
  </defs>
  <g>
    <use fill="none" xlink:href="#rect-1"/>
    <g mask="url(#mask-2)">
      <ellipse cx="24.125" cy="13.125" fill="rgb(63,38,184)" rx="1.25" ry="1.25"/>
      <path fill="rgb(63,38,184)" fill-rule="evenodd" d="M27 2.5h-1.625V1.25c0-.6875-.5625-1.25-1.25-1.25s-1.25.5625-1.25 1.25V2.5h-5.6875V1.25c0-.6875-.5625-1.25-1.25-1.25s-1.25.5625-1.25 1.25V2.5h-5.625V1.25C9.0625.5625 8.5 0 7.8125 0s-1.25.5625-1.25 1.25V2.5H5c-2.75625 0-5 2.24375-5 5V27c0 2.75625 2.24375 5 5 5h9.5625c.6875 0 1.25-.5625 1.25-1.25s-.5625-1.25-1.25-1.25H5c-1.38125 0-2.5-1.11875-2.5-2.5V7.5C2.5 6.11875 3.61875 5 5 5h1.5625v1.25c0 .6875.5625 1.25 1.25 1.25s1.25-.5625 1.25-1.25V5h5.625v1.25c0 .6875.5625 1.25 1.25 1.25s1.25-.5625 1.25-1.25V5h5.6875v1.25c0 .6875.5625 1.25 1.25 1.25s1.25-.5625 1.25-1.25V5H27c1.38125 0 2.5 1.11875 2.5 2.5v7.125c0 .6875.5625 1.25 1.25 1.25s1.25-.5625 1.25-1.25V7.5c0-2.75625-2.24375-5-5-5z"/>
      <path fill="rgb(63,38,184)" fill-rule="evenodd" d="M16.875 24.4375c0-4.1687622 3.39375305-7.5625 7.5625-7.5625S32 20.2687378 32 24.4375 28.60624695 32 24.4375 32s-7.5625-3.3937378-7.5625-7.5625zm2.5 0c0 2.7937622 2.26875305 5.0625 5.0625 5.0625S29.5 27.2312622 29.5 24.4375s-2.26875305-5.0625-5.0625-5.0625-5.0625 2.2687378-5.0625 5.0625z"/>
      <path fill="rgb(63,38,184)" fill-rule="evenodd" d="M26.25 23.1875h-.5625V21.875c0-.6875-.5625-1.25-1.25-1.25s-1.25.5625-1.25 1.25v2.5625c0 .6875.5625 1.25 1.25 1.25H26.25c.6875 0 1.25-.5625 1.25-1.25s-.5625-1.25-1.25-1.25z"/>
      <ellipse cx="18.688" cy="13.125" fill="rgb(63,38,184)" rx="1.25" ry="1.25"/>
      <ellipse cx="13.25" cy="18.563" fill="rgb(63,38,184)" rx="1.25" ry="1.25"/>
      <ellipse cx="7.813" cy="13.125" fill="rgb(63,38,184)" rx="1.25" ry="1.25"/>
      <ellipse cx="7.813" cy="18.563" fill="rgb(63,38,184)" rx="1.25" ry="1.25"/>
      <ellipse cx="7.813" cy="24" fill="rgb(63,38,184)" rx="1.25" ry="1.25"/>
      <ellipse cx="13.25" cy="24" fill="rgb(63,38,184)" rx="1.25" ry="1.25"/>
      <ellipse cx="13.25" cy="13.125" fill="rgb(63,38,184)" rx="1.25" ry="1.25"/>
    </g>
  </g>
</svg>
