<svg xmlns="http://www.w3.org/2000/svg" xmlns:xlink="http://www.w3.org/1999/xlink" width="33" height="33" viewBox="0 0 33 33">
  <defs>
    <rect id="rect-1" width="33" height="33" x="0" y="0"/>
    <mask id="mask-2" maskContentUnits="userSpaceOnUse" maskUnits="userSpaceOnUse">
      <rect width="33" height="33" x="0" y="0" fill="black"/>
      <use fill="white" xlink:href="#rect-1"/>
    </mask>
  </defs>
  <g>
    <use fill="none" xlink:href="#rect-1"/>
    <g mask="url(#mask-2)">
      <path fill="rgb(63,38,184)" fill-rule="evenodd" d="M2.40410233 11.00213623H12.7165985c1.3277359 0 2.41055298-1.08279419 2.40410614-2.41052246V2.40409851C15.12070465 1.07637024 14.04433441 0 12.71659851 0H2.40410233C1.07636643 0 0 1.07637024 0 2.40409851v6.18751526c0 1.32772827 1.07636642 2.41052246 2.40410233 2.41052246zM2.0625 2.40409851c0-.1869049.15468597-.34159851.34160233-.34159851H12.7165985c.18692017 0 .34160614.1546936.34160614.34159851v6.18751526c0 .18688965-.15468597.34158325-.34160614.34158325H2.40410233c-.18691636 0-.34160233-.1546936-.34160233-.34158325V2.40409851z"/>
      <path fill="rgb(63,38,184)" fill-rule="evenodd" d="M2.40410233 33H12.7165985c1.3277359 0 2.41055298-1.07635498 2.40410614-2.40408325v-14.4375c0-1.3277588-1.07637024-2.40411377-2.40410614-2.40411377H2.40410233C1.07636643 13.75430298 0 14.83065796 0 16.15841675v14.4375C0 31.92364502 1.07636642 33 2.40410233 33zM2.0625 16.15197754c0-.18692017.15468597-.34161377.34160233-.34161377H12.7165985c.18692017 0 .34160614.1546936.34160614.34161377v14.4375c0 .18688965-.15468597.34158325-.34160614.34158325H2.40410233c-.18691636 0-.34160233-.1546936-.34160233-.34158325v-14.4375z"/>
      <path fill="rgb(63,38,184)" fill-rule="evenodd" d="M20.28339386 33h10.3125C31.92362976 33 33 31.92364502 33 30.59591675v-6.1875c0-1.3277588-1.07637024-2.40411377-2.40410614-2.40411377h-10.3125c-1.32772827 0-2.40409851 1.07635498-2.40409851 2.40411377v6.1875C17.87929535 31.92364502 18.95566559 33 20.28339386 33zm-.34159851-8.59802246c0-.18692017.15468597-.34161377.34159851-.34161377h10.3125c.18692017 0 .34160614.1546936.34160614.34161377v6.1875c0 .18688965-.15468597.34158325-.34160614.34158325h-10.3125c-.18691254 0-.34159851-.1546936-.34159851-.34158325v-6.1875z"/>
      <path fill="rgb(63,38,184)" fill-rule="evenodd" d="M20.28339386 19.25213623h10.3125C31.92362976 19.25213623 33 18.16934204 33 16.84161377V2.40409851C33 1.07637024 31.92362976 0 30.59589386.00643921h-10.3125c-1.32772827 0-2.40409851 1.07637024-2.40409851 2.40411377v14.4375c0 1.32772827 1.07637024 2.40408325 2.40409851 2.40408325zm-.34159851-16.84803772c0-.1869049.15468597-.34159851.34159851-.34159851h10.3125c.18692017 0 .34160614.1546936.34160614.34159851v14.43751526c0 .18688965-.15468597.34158325-.34160614.34158325h-10.3125c-.18691254 0-.34159851-.1546936-.34159851-.34158325V2.40409851z"/>
    </g>
  </g>
</svg>
