<svg xmlns="http://www.w3.org/2000/svg" xmlns:xlink="http://www.w3.org/1999/xlink" width="42" height="42" viewBox="0 0 42 42">
  <defs>
    <rect id="rect-1" width="42" height="42" x="0" y="0"/>
    <mask id="mask-2" maskContentUnits="userSpaceOnUse" maskUnits="userSpaceOnUse">
      <rect width="42" height="42" x="0" y="0" fill="black"/>
      <use fill="white" xlink:href="#rect-1"/>
    </mask>
  </defs>
  <g>
    <use fill="none" xlink:href="#rect-1"/>
    <g mask="url(#mask-2)">
      <path fill="rgb(255,72,90)" fill-rule="evenodd" d="M37.1538086 8.07696533h-8.07702637C29.0769043 3.61602783 25.46081543 0 21 0c-4.4609375 0-8.07702637 3.61602783-8.07702637 8.07696533h-8.0769043c-1.11547851 0-2.01916503.9038086-2.01916503 2.01916504 0 1.11541748.9038086 2.01922608 2.01916504 2.01922608h.80773925V36.75c.00476075 2.89801025 2.35192871 5.24517822 5.25 5.25h20.19226075c2.89807129-.00482178 5.24523925-2.35198975 5.25-5.25V12.11535645h.80773925c1.11547852 0 2.01916504-.9038086 2.01916504-2.01922608 0-1.11535644-.90368652-2.01916504-2.01916504-2.01916504zM21 4.03845215c2.23010254 0 4.03845215 1.80847168 4.03845215 4.03845215h-8.0769043c0-2.23010254 1.80847168-4.03845215 4.03845215-4.03845215zm10.09606934 33.9230957c.66870117 0 1.21154785-.5427246 1.21154785-1.21154785V12.11535645H9.69226074V36.75c0 .66870117.54272461 1.21154785 1.21154785 1.21154785h20.19226075z"/>
      <g>
        <path fill="rgb(255,187,192)" fill-rule="evenodd" d="M16.55767969 31.09616016c-1.11546094 0-2.01919922-.90382032-2.01919922-2.01919922V21c0-1.11546094.90382031-2.01919922 2.01919922-2.01919922 1.1153789 0 2.01919922.90382031 2.01919922 2.01919922v8.07696094c.00008203 1.1153789-.90373829 2.01919922-2.01919922 2.01919922z"/>
        <path fill="rgb(255,187,192)" fill-rule="evenodd" d="M25.44232031 31.09616016c-1.11546093 0-2.01919922-.90382032-2.01919922-2.01919922V21c0-1.11546094.90382032-2.01919922 2.01919922-2.01919922 1.11546094 0 2.01919922.90382031 2.01919922 2.01919922v8.07696094c0 1.1153789-.90382031 2.01919922-2.01919922 2.01919922z"/>
      </g>
    </g>
  </g>
</svg>
