<svg xmlns="http://www.w3.org/2000/svg" xmlns:xlink="http://www.w3.org/1999/xlink" width="31" height="31" viewBox="0 0 31 31">
  <defs>
    <rect id="rect-1" width="31" height="31" x="0" y="0"/>
    <mask id="mask-2" maskContentUnits="userSpaceOnUse" maskUnits="userSpaceOnUse">
      <rect width="31" height="31" x="0" y="0" fill="black"/>
      <use fill="white" xlink:href="#rect-1"/>
    </mask>
  </defs>
  <g>
    <use fill="none" xlink:href="#rect-1"/>
    <g mask="url(#mask-2)">
      <path fill="rgb(63,38,184)" fill-rule="evenodd" d="M9.20315604 4.84374286l-.00000272 2.421875c-7.4e-7.66601562.54492052 1.21093811 1.21093614 1.21093886.66601563 7.5e-7 1.21093812-.54492052 1.21093886-1.21093614l.00000272-2.421875c.0000015-1.33807373 1.08378874-2.42187378 2.42187772-2.42187228l12.16991806.00001367c1.33808518.0000015 2.42187379 1.08380399 2.42187228 2.42187772l-.00002394 21.3125c-.0000015 1.33807373-1.08379254 2.42187378-2.42187772 2.42187228l-12.16991806-.00001367c-1.33808899-.0000015-2.42187378-1.08380399-2.42187228-2.42187772l.00000272-2.421875c7.5e-7-.66601563-.54492051-1.21093811-1.21093614-1.21093886-.66601562-7.5e-7-1.2109381.54492051-1.21093886 1.21093614l-.00000272 2.421875c-.000003 2.67010498 2.17362432 4.84375244 4.84374456 4.84375544l12.16991806.00001367c2.67011643.000003 4.84375244-2.17363958 4.84375544-4.84374456l.00002394-21.3125c.000003-2.67010498-2.17362813-4.84375244-4.84374455-4.84375544L14.04691148-.0000017c-2.67012023-.000003-4.84375244 2.17363958-4.84375544 4.84374456zm-5.5339954 5.73986195L.95665607 13.29606514C-.2361248 14.47672786-.23612696 16.4021429.94453577 17.58280829l2.71249849 2.71246642c.47226662.47229057 1.2412104.47229144 1.71347808.00000193.47226769-.47222847.47226855-1.2412104.00000193-1.71343994l-1.9314401-1.9314597 14.54335786.00001635c.66601562 7.4e-7 1.2109381-.54492052 1.21093886-1.21093614 7.5e-7-.66601563-.54492052-1.21093812-1.21093614-1.21093886L3.445127 14.22850202l1.93145206-1.93145535c.47226768-.47222848.47226854-1.24121041.00000192-1.71343995-.23613712-.23614528-.54492147-.35723938-.85371359-.35723972-.30878448-3.5e-7-.61757673.12109305-.85370676.3572378z"/>
    </g>
  </g>
</svg>
