<svg xmlns="http://www.w3.org/2000/svg" xmlns:xlink="http://www.w3.org/1999/xlink" width="33.779" height="33.528" viewBox="0 0 33.779 33.528">
  <defs>
    <rect id="rect-1" width="33.779" height="33.528" x="0" y="0"/>
    <mask id="mask-2" maskContentUnits="userSpaceOnUse" maskUnits="userSpaceOnUse">
      <rect width="33.779" height="33.528" x="0" y="0" fill="black"/>
      <use fill="white" xlink:href="#rect-1"/>
    </mask>
  </defs>
  <g>
    <use fill="none" xlink:href="#rect-1"/>
    <g mask="url(#mask-2)">
      <path fill="rgb(63,38,184)" fill-rule="evenodd" d="M6.92727598 3.01229931H26.8514436c3.81990051 0 6.92727661 3.08435059 6.92727661 6.87591553v10.52346802c0 3.79156494-3.1073761 6.87591553-6.9272766 6.87591553H12.71319897L9.645408 30.33267285c-.18472672.1833496-.43542862.28811645-.69932556.28811645-.26389695 0-.51459885-.10476684-.69932557-.28811645l-3.34488296-3.32009888C1.99901518 26.1678169-6.3e-7 23.53530957-6.3e-7 20.50988842V9.88821484c0-3.79156494 3.10737991-6.87591553 6.9272766-6.87591553zm19.92416763 22.3107605c2.73132324 0 4.94805908-2.20028686 4.94805908-4.91137695V9.88824536c0-2.71109009-2.21673584-4.91137696-4.94805908-4.91137696H6.92727598c-2.73132706 0-4.94805527 2.20028687-4.94805527 4.91137696v10.62167358c0 2.21340943 1.51080704 4.1321106 3.6747551 4.67562866.1781311.03930664.33646774.13098145.4618187.25540162l2.83028793 2.80929565 2.65875625-2.63903809c.1847229-.1833496.4354248-.28814697.69932556-.28814697h14.54727936z"/>
      <path fill="rgb(63,38,184)" fill-rule="evenodd" d="M23.17009309 12.42906106H10.60863032c-.54758477 0-.98961104.43874979-.98961104.98227564s.44202627.98227564.98961104.98227564h12.56806017c.54758478 0 .98961104-.43874979.98961104-.98227564-.0065974-.54352585-.44862367-.98227564-.99620844-.98227564z"/>
      <path fill="rgb(63,38,184)" fill-rule="evenodd" d="M23.17009309 15.90631682H10.60863032c-.54758477 0-.98961104.43874978-.98961104.98227564 0 .54352585.44202627.98227563.98961104.98227563h12.56806017c.54758478 0 .98961104-.43874978.98961104-.98227563 0-.54352586-.44862367-.98227564-.99620844-.98227564z"/>
    </g>
  </g>
</svg>
