<svg xmlns="http://www.w3.org/2000/svg" xmlns:xlink="http://www.w3.org/1999/xlink" width="36" height="36" viewBox="0 0 36 36">
  <defs>
    <rect id="rect-1" width="36" height="36" x="0" y="0"/>
    <mask id="mask-2" maskContentUnits="userSpaceOnUse" maskUnits="userSpaceOnUse">
      <rect width="36" height="36" x="0" y="0" fill="black"/>
      <use fill="white" xlink:href="#rect-1"/>
    </mask>
  </defs>
  <g>
    <use fill="none" xlink:href="#rect-1"/>
    <g mask="url(#mask-2)">
      <path fill="rgb(63,38,184)" fill-rule="evenodd" d="M18.02334586 36c-3.10198992 0-5.625-2.52301008-5.625-5.625 0-.6210021.50399789-1.125 1.125-1.125.6210021 0 1.125.5039979 1.125 1.125 0 1.86163312 1.5136411 3.375 3.375 3.375 1.86163312 0 3.375-1.51336688 3.375-3.375 0-.6210021.50399789-1.125 1.125-1.125.6210021 0 1.125.5039979 1.125 1.125 0 3.10198992-2.52301008 5.625-5.625 5.625z"/>
      <path fill="rgb(63,38,184)" fill-rule="evenodd" d="M5.64834595 31.5c-1.44744873 0-2.62490845-1.17749023-2.62490845-2.62487793 0-.76824951.3345337-1.49554443.91790771-1.99511719 2.2815857-1.9276123 3.58209229-4.72937011 3.58209229-7.69787597v-4.18225098C7.5234375 9.21008301 12.23355103 4.5 18.02334595 4.5c5.79006958 0 10.5001831 4.710083 10.5001831 10.49987793v4.18225098c0 2.96850586 1.3005066 5.77026367 3.56698609 7.68737793.59848022.5100708.93301391 1.23736572.93301391 2.00561523 0 1.4473877-1.17745971 2.62487793-2.6251831 2.62487793h-24.75zm12.375-24.75c-4.54943848 0-8.24990845 3.70043945-8.24990845 8.24987793v4.18225098c0 3.63122558-1.59136963 7.06036377-4.36486816 9.40484619-.05273438.04504394-.13513184.13812256-.13513184.28814697 0 .20373535.17111206.37487793.37490845.37487793h24.75c.20407104 0 .3751831-.17114258.3751831-.37487793 0-.15002441-.08267212-.24310303-.1321106-.28515625-2.77651977-2.34747314-4.3678894-5.77661133-4.3678894-9.40783691v-4.18225098c0-4.54943848-3.70046997-8.24987793-8.2501831-8.24987793z"/>
      <path fill="rgb(63,38,184)" fill-rule="evenodd" d="M18.02334595 6.75c-.6210022 0-1.125-.50402832-1.125-1.125v-4.5c0-.62097168.5039978-1.125 1.125-1.125s1.125.50402832 1.125 1.125v4.5c0 .62097168-.5039978 1.125-1.125 1.125z"/>
    </g>
  </g>
</svg>
