<svg aria-hidden="true" style="position: absolute; width: 0; height: 0; overflow: hidden;" version="1.1" xmlns="http://www.w3.org/2000/svg" xmlns:xlink="http://www.w3.org/1999/xlink">
<defs>
<symbol id="icon-plus-circle" viewBox="0 0 24 24">
<path d="M23 12c0-3.037-1.232-5.789-3.222-7.778s-4.741-3.222-7.778-3.222-5.789 1.232-7.778 3.222-3.222 4.741-3.222 7.778 1.232 5.789 3.222 7.778 4.741 3.222 7.778 3.222 5.789-1.232 7.778-3.222 3.222-4.741 3.222-7.778zM21 12c0 2.486-1.006 4.734-2.636 6.364s-3.878 2.636-6.364 2.636-4.734-1.006-6.364-2.636-2.636-3.878-2.636-6.364 1.006-4.734 2.636-6.364 3.878-2.636 6.364-2.636 4.734 1.006 6.364 2.636 2.636 3.878 2.636 6.364zM8 13h3v3c0 0.552 0.448 1 1 1s1-0.448 1-1v-3h3c0.552 0 1-0.448 1-1s-0.448-1-1-1h-3v-3c0-0.552-0.448-1-1-1s-1 0.448-1 1v3h-3c-0.552 0-1 0.448-1 1s0.448 1 1 1z"></path>
</symbol>
<symbol id="icon-cloud-upload" viewBox="0 0 32 32">
<path d="M15 16l-3.25 3.25-0.75-0.75 4.5-4.5 4.5 4.5-0.75 0.75-3.25-3.25v11h-1v-11zM14 21h-6.997c-2.205 0-4.003-1.791-4.003-4 0-1.895 1.325-3.488 3.101-3.898v0c-0.066-0.357-0.101-0.726-0.101-1.102 0-3.314 2.686-6 6-6 2.615 0 4.84 1.673 5.661 4.008 0.774-0.63 1.762-1.008 2.839-1.008 2.358 0 4.293 1.814 4.484 4.123v0c1.73 0.44 3.016 2.009 3.016 3.877 0 2.205-1.792 4-4.003 4h-6.997v1h7.001c2.761 0 4.999-2.244 4.999-5 0-2.096-1.287-3.892-3.117-4.634v0c-0.523-2.493-2.734-4.366-5.383-4.366-0.863 0-1.679 0.199-2.406 0.553-1.203-2.121-3.481-3.553-6.094-3.553-3.866 0-7 3.134-7 7 0 0.138 0.004 0.275 0.012 0.412v0c-1.772 0.77-3.012 2.538-3.012 4.588 0 2.761 2.232 5 4.999 5h7.001v-1z"></path>
</symbol>
</defs>
</svg>
