<svg xmlns="http://www.w3.org/2000/svg" width="19.243" height="16.045" viewBox="0 0 19.243 16.045">
  <g>
    <path fill="rgb(63,38,184)" fill-rule="evenodd" d="M15.88187699 5.49588592C15.10693803 2.20480687 12.20076766 0 9.02469287.29358712c-3.1760748.29358711-5.68153263 2.99862915-5.91169253 6.38261662C1.28870977 6.99197007 0 8.74865184.15470758 10.70874781c.15470758 1.96009597 1.70072072 3.46336622 3.5489445 3.45082624h2.94997534v-1.256029H3.70365209c-1.3034214 0-2.36005323-1.12451284-2.36005323-2.51166974s1.05663182-2.51166974 2.36005323-2.51166974c.15645707 0 .30650606-.06614517.41713792-.18388433.11063185-.11773915.17278418-.27742772.17278418-.44393604-.00473875-2.91116734 2.06922699-5.34989318 4.79158079-5.63430325 2.7223538-.28441007 5.20233123 1.67855567 5.72960874 4.53513228.04843634.26476582.2503718.46701412.50163444.5024116 1.52899635.23330212 2.63009034 1.68219245 2.52474986 3.32222834-.10534048 1.6400359-1.38145272 2.9159883-2.9260574 2.92569088h-2.36224219v1.256029h2.36005323c2.0853864-.00959302 3.83689897-1.67213214 4.08338161-3.87595369.24648264-2.20382155-1.08940078-4.25745697-3.11440628-4.78773444z"/>
    <path fill="rgb(63,38,184)" fill-rule="evenodd" d="M9.1833243 8.06230066L6.82327107 10.5739704l.8318011.88523837 1.35714918-1.43657104v6.02195048h1.18020903v-6.02195048l1.34985267 1.43657104.8318011-.88523837-2.36005322-2.51166974c-.22996473-.24265756-.6007419-.24265756-.83070663 0z"/>
  </g>
</svg>
