<svg xmlns="http://www.w3.org/2000/svg" xmlns:xlink="http://www.w3.org/1999/xlink" width="35.28" height="35.019" viewBox="0 0 35.28 35.019">
  <defs>
    <rect id="rect-1" width="35.28" height="35.019" x="0" y="0"/>
    <mask id="mask-2" maskContentUnits="userSpaceOnUse" maskUnits="userSpaceOnUse">
      <rect width="35.28" height="35.019" x="0" y="0" fill="black"/>
      <use fill="white" xlink:href="#rect-1"/>
    </mask>
  </defs>
  <g>
    <use fill="none" xlink:href="#rect-1"/>
    <g mask="url(#mask-2)">
      <path fill="rgb(63,38,184)" fill-rule="evenodd" d="M17.38860382 16.8688896c2.33473206 0 4.35616303-.83117675 6.00830078-2.47109984 1.65159607-1.63964844 2.48923493-3.64587403 2.48923493-5.96362305 0-2.31692505-.83737183-4.3234253-2.48950196-5.96359253-1.65213775-1.6394043-3.67356872-2.47058106-6.00803375-2.47058106-2.33500671 0-4.35617065.83117676-6.00803757 2.4708252C9.72870315 4.11046676 8.8910605 6.116967 8.8910605 8.43416671c0 2.31774902.83764267 4.32424927 2.48950576 5.9638977 1.6524086 1.63937378 3.67383194 2.4708252 6.00803757 2.4708252zM12.84266724 3.92186813c1.26750183-1.25811767 2.75437164-1.86968994 4.54592895-1.86968994 1.79129791 0 3.27843475.61157227 4.54620361 1.86968994 1.2674942 1.25839234 1.88388062 2.7345276 1.88388062 4.5123291 0 1.77832032-.61638641 3.25418091-1.88388062 4.51257325-1.26776886 1.25839233-2.7549057 1.8699646-4.5462036 1.8699646-1.79102326 0-3.27788545-.61184693-4.54592896-1.8699646-1.26776505-1.25811768-1.88415146-2.73425293-1.88415146-4.51257324 0-1.77780152.61638641-3.25393677 1.88415146-4.5123291z"/>
      <path fill="rgb(63,38,184)" fill-rule="evenodd" d="M32.2570044 26.92803268c-.04763794-.68237305-.1439972-1.4267273-.28585053-2.21273804-.1431961-.79193115-.32757568-1.54055786-.54828644-2.22479248-.22825622-.70718384-.53806305-1.40557862-.92162323-2.07485962-.39756012-.69467163-.86483002-1.29956055-1.38916015-1.79730225-.54828644-.52072143-1.21958924-.93939209-1.99585724-1.24475097-.77358246-.30377198-1.63087464-.45767212-2.54792023-.45767212-.36014557 0-.70844269.14666748-1.38108063.58135986-.41397857.26797485-.89820862.57791138-1.43869018.92068481-.4621582.29229737-1.08823395.56616211-1.86154175.81408692-.75447083.24234009-1.52051544.36523437-2.27687073.36523437-.7558136 0-1.52185821-.12289428-2.27687073-.36523437-.77249908-.24768067-1.39884948-.5215149-1.86019897-.81381226-.53536987-.33956909-1.01986694-.64950561-1.44002915-.92123413-.6721077-.43469238-1.02040481-.58135986-1.38055038-.58135986-.91731262 0-1.77433395.1541748-2.54764557.45819092-.77573395.3048706-1.44729996.72351074-1.99612808 1.2447815-.52433395.49801635-.99160385 1.1026306-1.38888931 1.79702758-.38302231.669281-.6931038 1.36740112-.92135239 2.07513428-.22044754.68423462-.40482712 1.43258667-.54802322 2.22451782-.14211655.78494263-.23820877 1.52957153-.28585053 2.2135315-.04683685.66873168-.0705223 1.36474609-.0705223 2.06793212 0 1.82800293.58543395 3.30789185 1.73988342 4.39932251 1.1401825 1.07696533 2.64858245 1.6230774 4.48348236 1.6230774h16.98754501c1.83435822 0 3.34275818-.54611207 4.4832077-1.6230774 1.15472412-1.09060669 1.74015808-2.57104492 1.74015808-4.39959717-.00027465-.70559692-.02423095-1.4015808-.07133484-2.06845092zm-3.09432221 4.98123168c-.75338745.71173096-1.7536087 1.05773926-3.0579834 1.05773926H9.11742462c-1.30464172 0-2.30485916-.3460083-3.0579834-1.05749511-.73885727-.69812012-1.09792328-1.65112305-1.09792328-2.91271973 0-.65618897.021801-1.30410767.0654068-1.92608643.04253006-.61022949.12946701-1.2805481.25839997-1.99285888.12731552-.7034607.28935241-1.36364746.48207473-1.96133423.18491364-.5730896.43712235-1.14056397.7498932-1.68719483.29850387-.52099609.64195632-.96798706 1.02094268-1.328125.35448837-.33691406.80130386-.61264038 1.3277893-.81942749.48691941-.1913147 1.03413392-.2960205 1.62818147-.3117981.07240676.03820802.2013359.11114503.41020584.2463379.42501068.27493286.9148941.58859253 1.45645141.93191528.610466.38632202 1.39696503.73526001 2.33662415 1.03634644.96064758.3083496 1.9404068.46490478 2.91290283.46490478.97249603 0 1.95252228-.15655517 2.9126358-.46463012.9404602-.30163575 1.7266922-.65029908 2.33796692-1.03717041.55421448-.35159302 1.030365-.65618897 1.45537567-.93136597.20886994-.13491821.33779908-.20812988.41020966-.2463379.59431457.0157776 1.14152527.1204834 1.62871551.3117981.5262146.20678711.9730301.48278809 1.32752228.8194275.37898255.35986327.72244263.80685424 1.02094269 1.32839965.31304169.5463562.56551361 1.11410523.75016022 1.68667603.19299316.5984497.3553009 1.25839233.48234558 1.96133423.1286621.71362304.21587372 1.3842163.25839996 1.99337768v.00054932c.04387665.61956787.06594086 1.26721191.06621552 1.92526245-.00027466 1.26184082-.35933686 2.2145996-1.09819794 2.91247558z"/>
    </g>
  </g>
</svg>
