<svg xmlns="http://www.w3.org/2000/svg" xmlns:xlink="http://www.w3.org/1999/xlink" width="31.996" height="31.996" viewBox="0 0 31.996 31.996">
  <defs>
    <rect id="rect-1" width="31.996" height="31.996" x="0" y="0"/>
    <mask id="mask-2" maskContentUnits="userSpaceOnUse" maskUnits="userSpaceOnUse">
      <rect width="31.996" height="31.996" x="0" y="0" fill="black"/>
      <use fill="white" xlink:href="#rect-1"/>
    </mask>
  </defs>
  <g>
    <use fill="none" xlink:href="#rect-1"/>
    <g mask="url(#mask-2)">
      <path fill="rgb(63,38,184)" fill-rule="evenodd" d="M24.88631249 14.74951583L10.64768799.51115145C10.31836599.18156932 9.87874972 0 9.40999912 0c-.4687506 0-.90836686.18156932-1.23768886.51115145l-1.04857584 1.0483157c-.68231565.68309605-.68231565 1.7933222 0 2.47537774l11.95652185 11.95652185L7.1104679 27.9611551c-.329322.32958214-.51115146.76893827-.51115146 1.23742874 0 .46901072.18182945.90836686.51115146 1.23820912l1.04857583 1.04805558C8.48862586 31.81443068 8.927982 31.996 9.3967326 31.996c.4687506 0 .90836685-.18156932 1.23768886-.51115145l14.25189103-14.25137077c.33010238-.33062265.51141158-.7720598.51037107-1.24133066.0010405-.47109175-.18026869-.91226878-.51037107-1.2426313z"/>
    </g>
  </g>
</svg>
