<?xml version="1.0" encoding="utf-8"?>
<!-- Generator: Adobe Illustrator 25.1.0, SVG Export Plug-In . SVG Version: 6.00 Build 0)  -->
<svg version="1.1" id="Layer_1" xmlns="http://www.w3.org/2000/svg" xmlns:xlink="http://www.w3.org/1999/xlink" x="0px" y="0px"
	 viewBox="0 0 177.8 40" style="enable-background:new 0 0 177.8 40;" xml:space="preserve">
<style type="text/css">
	.st0{fill:#394149;}
	.st1{fill:#3F26B8;}
</style>
<path class="st0" d="M42.9,9.4H47v19.8h-4.1V9.4z"/>
<path class="st0" d="M49.3,22.4c0-4,3.2-7.2,7.2-7.2c4,0,7.2,3.2,7.2,7.2c0,4-3.2,7.2-7.2,7.2c0,0,0,0,0,0c-3.9,0-7.1-3.1-7.2-7
	C49.3,22.5,49.3,22.5,49.3,22.4z M59.6,22.4c0-1.7-1.5-3.1-3.2-3c-1.7,0-3.1,1.5-3,3.2c0,1.7,1.4,3,3.1,3c1.7,0,3.1-1.3,3.1-3
	C59.6,22.6,59.6,22.5,59.6,22.4L59.6,22.4z"/>
<path class="st0" d="M79.9,15.6v12.9c0,4.6-3.6,6.5-7.2,6.5c-2.6,0.2-5.1-1.1-6.4-3.3l3.5-2c0.6,1.2,1.8,1.8,3.1,1.7
	c1.5,0.2,2.9-0.9,3.1-2.4c0-0.2,0-0.3,0-0.5v-1.2c-1,1.2-2.4,1.8-4,1.8c-3.8,0-6.9-3.1-6.9-6.9s3.1-6.9,6.9-6.9c1.5-0.1,3,0.6,4,1.8
	v-1.4L79.9,15.6z M75.9,22.1c0.1-1.8-1.3-3.3-3.2-3.4c-1.8-0.1-3.3,1.3-3.4,3.2c-0.1,1.8,1.3,3.3,3.2,3.4c0,0,0.1,0,0.1,0
	c1.7,0.1,3.2-1.2,3.3-2.8C75.9,22.4,75.9,22.2,75.9,22.1z"/>
<path class="st0" d="M82.2,22.4c0-4,3.2-7.2,7.2-7.2c4,0,7.2,3.2,7.2,7.2s-3.2,7.2-7.2,7.2c0,0,0,0,0,0c-3.9,0-7.1-3.1-7.2-7
	C82.2,22.5,82.2,22.5,82.2,22.4z M92.5,22.4c0-1.7-1.5-3.1-3.2-3c-1.7,0-3.1,1.5-3,3.2c0,1.7,1.4,3.1,3.1,3c1.7,0,3.1-1.3,3.1-3
	C92.5,22.6,92.5,22.5,92.5,22.4L92.5,22.4z"/>
<path class="st0" d="M98.5,12c0-1.3,1.1-2.4,2.4-2.4c1.3,0,2.4,1.1,2.4,2.4s-1.1,2.4-2.4,2.4l0,0C99.6,14.4,98.5,13.3,98.5,12z
	 M98.9,15.6h4.1v13.6h-4.1V15.6z"/>
<path class="st0" d="M120.6,22.4c0.2,3.8-2.7,7-6.5,7.2c0,0,0,0,0,0c-1.6,0.1-3.1-0.5-4.1-1.7v6.7h-4.1v-19h4.1v1.3
	c1-1.1,2.6-1.8,4.1-1.6C117.8,15.4,120.7,18.6,120.6,22.4C120.6,22.4,120.6,22.4,120.6,22.4z M116.5,22.4c0-1.8-1.5-3.2-3.3-3.2
	c-1.8,0-3.2,1.5-3.2,3.3c0,1.8,1.5,3.2,3.2,3.2c1.7,0.1,3.2-1.3,3.2-3C116.5,22.7,116.5,22.5,116.5,22.4z"/>
<path class="st0" d="M133.1,25.1c0,3.1-2.7,4.5-5.6,4.5c-2.4,0.2-4.7-1.1-5.8-3.2l3.5-2c0.3,1,1.2,1.7,2.3,1.6c1,0,1.5-0.3,1.5-0.9
	c0-1.5-6.7-0.7-6.7-5.4c0-3,2.5-4.4,5.3-4.4c2.2-0.1,4.3,1,5.4,2.9l-3.5,1.9c-0.3-0.7-1-1.2-1.8-1.2c-0.7,0-1.1,0.3-1.1,0.8
	C126.4,21.1,133.1,20.1,133.1,25.1z"/>
<path class="st0" d="M148,15.6v13.6h-4.1v-1.3c-0.9,1.1-2.4,1.8-3.9,1.7c-2.7,0-5.1-2-5.1-5.6v-8.4h4.1v7.7c-0.1,1.2,0.8,2.3,2,2.5
	c0.1,0,0.2,0,0.4,0c1.5,0,2.5-0.9,2.5-2.7v-7.5H148z"/>
<path class="st0" d="M171.3,20.9v8.3h-4.1v-8c0-1.4-0.6-2.2-1.9-2.2s-2.1,0.9-2.1,2.6v7.7H159v-8c0-1.4-0.6-2.2-1.9-2.2
	s-2.1,0.9-2.1,2.6v7.7h-4.1V15.6h4.1v1.2c0.9-1.1,2.2-1.7,3.6-1.6c1.4-0.1,2.8,0.6,3.6,1.8c0.9-1.2,2.4-1.9,3.9-1.8
	C169.3,15.3,171.3,17.5,171.3,20.9z"/>
<path class="st1" d="M18.4,5.8V0H0v40h18.4v-5.8c-7.8,0-14.2-6.4-14.2-14.2S10.5,5.8,18.4,5.8z"/>
<path class="st1" d="M18.4,5.8v28.4c7.8,0,14.2-6.4,14.2-14.2S26.2,5.8,18.4,5.8L18.4,5.8z"/>
<circle class="st1" cx="174.8" cy="12.5" r="3"/>
</svg>
