<svg xmlns="http://www.w3.org/2000/svg" width="296.438" height="67.6" viewBox="0 0 296.438 67.6">
  <g>
    <path fill="rgb(255,255,255)" fill-rule="evenodd" d="M71.48629945 15.85821918h6.85829544V49.3109589h-6.85829544V15.85821918z"/>
    <path fill="rgb(255,255,255)" fill-rule="evenodd" d="M89.61024716 26.6159668c-4.4932251 1.87695312-7.42492676 6.31323242-7.4249878 11.23535156-.04315185 3.22460937 1.19799806 6.33081055 3.44335938 8.61767578 2.24536133 2.28686524 5.30560303 3.56152344 8.49005127 3.53637695 4.86053467.02807618 9.25787354-2.9152832 11.13720703-7.45458984 1.8793335-4.53930664.8694458-9.77832031-2.55761718-13.26879883-3.42712403-3.49047851-8.59472657-4.54321289-13.0880127-2.66601562zm4.4650879 6.09667968c2.86016845-.0505371 5.22607421 2.24267579 5.30133056 5.13867188h-.04571533c.07653808 1.42675781-.43688965 2.82128906-1.41711426 3.8491211-.98022461 1.02783202-2.33874512 1.59594726-3.74945069 1.56811523-2.8605957-.00097657-5.18585205-2.33666992-5.21032714-5.23339844-.02441407-2.89672852 2.2611084-5.27197266 5.12127685-5.32250977z"/>
    <path fill="rgb(255,255,255)" fill-rule="evenodd" d="M133.18812802 48.17651367v-21.7849121l-6.60687256.138916v2.31518555c-1.61816406-1.9868164-4.06646728-3.08496093-6.60681152-2.9633789-6.31286621 0-11.43048096 5.18261719-11.43048096 11.57543945 0 6.39282227 5.11761475 11.57543946 11.43048096 11.57543946 2.54034424.12158203 4.98864746-.9765625 6.60681152-2.96337891v2.10668945c.09210205 1.37817383-.42822265 2.72583008-1.41888428 3.67529297-.99066162.9494629-2.34820556 1.40161133-3.70196533 1.23266602-2.14904785.21801757-4.20684814-.93457032-5.16656494-2.89379883l-5.78381348 3.37988281c2.24237061 3.7631836 6.39605713 5.91577149 10.72180176 5.55615234 6.01239014 0 11.95629883-3.26416015 11.95629883-10.9501953zm-9.8305664-16.0834961c2.04101562.93334962 3.3170166 3.02929688 3.22375488 5.29541016.04248047 1.46582032-.52990723 2.8815918-1.5755005 3.89624024-1.04565429 1.01489258-2.4666748 1.5336914-3.91119384 1.42822265-2.23950195-.00195312-4.25305176-1.38208007-5.0871582-3.4868164-.83404541-2.10473633-.321167-4.51147461 1.29571533-6.08081055 1.61694336-1.5690918 4.01330566-1.9855957 6.05438232-1.0522461z"/>
    <path fill="rgb(255,255,255)" fill-rule="evenodd" d="M144.46589902 26.62036133c-4.48760987 1.87988281-7.41430664 6.31323242-7.41430664 11.23120117-.03704834 3.2307129 1.21240234 6.34057617 3.46630859 8.62719727 2.25396729 2.28686523 5.3223877 3.55810546 8.51281738 3.52685546 4.85644532.00927735 9.23980713-2.94604492 11.10473633-7.4868164 1.86486816-4.54101563.84368897-9.77246094-2.58703613-13.25341797-3.43078613-3.4807129-8.59484863-4.52490234-13.08251953-2.64501953zm4.46813965 6.0925293c2.8630371-.0546875 5.23364257 2.23974609 5.309021 5.13867187h-.0228882c.0765381 1.42675781-.43688964 2.82128906-1.41711425 3.8491211-.9802246 1.02783203-2.33874512 1.59594726-3.74945068 1.56811523-2.8635254.01171875-5.20019532-2.31811524-5.23303223-5.21777344-.03283691-2.8996582 2.25042725-5.28320312 5.11346436-5.33813476z"/>
    <path fill="rgb(255,255,255)" fill-rule="evenodd" d="M168.2568536 16.13598633c-2.24743652 0-4.0692749 1.8449707-4.0692749 4.1208496.02471924 2.26538087 1.83221436 4.09570313 4.0692749 4.12084962 2.2473755 0 4.06921387-1.8449707 4.06921387-4.12084961 0-2.2758789-1.82183838-4.12084961-4.06921386-4.12084961zm3.45196534 10.25585937h-6.85827637v22.91918946h6.85827637V26.3918457z"/>
    <path fill="rgb(255,255,255)" fill-rule="evenodd" d="M198.10676816 46.22558594c2.04699707-2.28149414 3.11083984-5.2956543 2.9555664-8.37426758.13647461-3.06689453-.93579101-6.06298828-2.98077392-8.3293457-2.04504395-2.26635743-4.89538574-3.6171875-7.92388916-3.7553711-2.58520508-.18359375-5.11138916.83959961-6.8583374 2.77807617V26.3918457h-6.85827637v32.13305664h6.85827637V47.20410156c1.74456787 1.94433594 4.2699585 2.97558594 6.8583374 2.80126953 3.04101562-.1376953 5.9020996-1.49829101 7.94909668-3.77978515zm-9.39465332-13.6977539c2.96405029-.05493165 5.41656494 2.32250976 5.49194336 5.32348632.10559082 1.48779297-.42071534 2.95019531-1.44671631 4.02026367-1.02600098 1.06982422-2.4541626 1.64550781-3.92559815 1.5822754-2.96453857.01171874-5.38311767-2.40087891-5.41595459-5.40283204-.03289795-3.00195312 2.33221436-5.46850586 5.29632569-5.52319336z"/>
    <path fill="rgb(255,255,255)" fill-rule="evenodd" d="M221.93444039 42.43520548c0 5.27835616-4.57219696 7.5239726-9.41872574 7.5239726-4.04446405.3686555-7.90250044-1.79574504-9.73877952-5.46356164l5.89813407-3.38c.48152033 1.70240688 2.07331018 2.83174511 3.81778447 2.70863014 1.62312992 0 2.44612537-.50931507 2.44612537-1.43534247 0-2.52342466-11.1332996-1.18068493-11.1332996-9.12136986 0-5.00054795 4.16069924-7.50082192 8.8700621-7.50082192 3.64712647-.16537614 7.08929836 1.71090473 8.96150604 4.88479452L215.73911351 33.8c-.53227328-1.2201049-1.72334647-2.0091012-3.04051098-2.01410959-1.18877121 0-1.89746174.4630137-1.89746174 1.27328767 0 2.63917808 11.1332996.90287671 11.1332996 9.3760274z"/>
    <path fill="rgb(255,255,255)" fill-rule="evenodd" d="M246.78433086 26.39178082V49.3109589h-6.85829544v-2.1530137c-1.5799769 1.9327158-3.97311823 2.98976028-6.44679771 2.84753425-4.57219696 0-8.48142536-3.31054794-8.48142536-9.49178082v-14.1219178h6.85829544V39.4719178c-.10911906 1.10672115.26645658 2.20623891 1.02752622 3.00813799.76106965.80189907 1.83108533 1.2255249 2.92742415 1.1589853 2.46898635 0 4.2064212-1.48164384 4.2064212-4.63013699V26.39178082h6.7668515z"/>
    <path fill="rgb(255,255,255)" fill-rule="evenodd" d="M285.648005 35.23534247V49.3109589h-6.85829543V35.83726027c0-2.31506849-1.07446629-3.75041095-3.24625984-3.75041095-2.17179356 0-3.54345264 1.59739726-3.54345264 4.3060274V49.3109589h-6.85829544V35.83726027c0-2.31506849-1.07446629-3.75041095-3.24625984-3.75041095-2.17179356 0-3.54345265 1.59739726-3.54345265 4.3060274V49.3109589h-6.85829544V26.39178082h6.85829544v2.10671233c1.44238986-1.89081082 3.72880067-2.9179364 6.08102196-2.73178082 2.35970577-.12461982 4.60968047 1.01902228 5.92099506 3.00958904 1.53134665-2.0778939 4.00876605-3.21429042 6.56110264-3.00958904 5.34947044 0 8.73289619 3.75041096 8.73289619 9.46863014z"/>
    <path fill="rgb(255,255,255)" fill-rule="evenodd" d="M30.63371962 9.8390411V0H0v67.6h30.63371962v-9.8390411C17.5660443 57.7609589 6.97260036 47.0332722 6.97260036 33.8c0-13.2332722 10.59344393-23.9609589 23.66111926-23.9609589z"/>
    <path fill="rgb(255,255,255)" fill-rule="evenodd" d="M30.63371962 9.8390411v47.9219178c13.06767534 0 23.66111927-10.7276867 23.66111927-23.9609589 0-13.2332722-10.59344393-23.9609589-23.66111927-23.9609589z"/>
    <ellipse cx="291.409" cy="21.16" fill="rgb(255,255,255)" rx="5.029" ry="5.093"/>
  </g>
</svg>
